<mxfile host="app.diagrams.net" modified="2024-06-11T19:16:49.166Z" agent="Mozilla/5.0 (Windows NT 10.0; Win64; x64) AppleWebKit/537.36 (KHTML, like Gecko) Chrome/125.0.0.0 Safari/537.36" version="24.5.3" etag="CCKzOc0NW_hea1ttXCKf" type="github">
  <diagram name="PÃ¡gina-1" id="OQQ7g_wtYbfZXQ0ZlyV-">
    <mxGraphModel>
      <root>
        <mxCell id="0" />
        <mxCell id="1" parent="0" />
      </root>
    </mxGraphModel>
  </diagram>
</mxfile>
